<svg id="e4261ebc-e7c5-486b-8286-44d486b8367b" data-name="m6io with lines" xmlns="http://www.w3.org/2000/svg" width="1000" height="1000" viewBox="0 0 1000 1000">
  <g>
    <g>
      <polygon points="846.112 299.88 846.112 700.12 500 900 153.888 700.12 153.888 299.88 500 100 846.112 299.88" fill="#fff" stroke="#000" stroke-miterlimit="10" stroke-width="4"/>
      <g>
        <line x1="500" y1="100" x2="500" y2="500" fill="none" stroke="#000" stroke-miterlimit="10" stroke-width="4"/>
        <line x1="846.11212" y1="699.88013" x2="500" y2="500" fill="none" stroke="#000" stroke-miterlimit="10" stroke-width="4"/>
        <line x1="153.88785" y1="699.88013" x2="500" y2="500" fill="none" stroke="#000" stroke-miterlimit="10" stroke-width="4"/>
      </g>
    </g>
    <g>
      <polygon points="500 100 153.888 299.88 153.888 300.12 500 500 500 100" fill="#d1fae5" opacity="0.5"/>
      <polygon points="153.888 300.12 153.888 699.88 500 500 153.888 300.12" fill="#d1fae5" opacity="0.5"/>
      <polygon points="153.888 699.88 153.888 700.12 500 900 500 500 153.888 699.88" fill="#d1fae5" opacity="0.5"/>
      <polygon points="500 100 500 500 846.112 300.12 846.112 299.88 500 100" fill="#d1fae5" opacity="0.5"/>
      <polygon points="846.112 699.88 846.112 300.12 500 500 846.112 699.88" fill="#d1fae5" opacity="0.5"/>
      <polygon points="500 900 846.112 700.12 846.112 699.88 500 500 500 900" fill="#d1fae5" opacity="0.5"/>
    </g>
    <g>
      <polygon points="672.974 500.088 672.864 700.147 759.389 750.102 759.584 750.102 759.584 449.807 672.974 500.088" fill="#34d399"/>
      <path d="M759.58478,349.98444,500,499.8559V599.95435l259.58411-149.8711c0,10.05445.00006,300.01886.0025,300.01886l86.52557-49.95544V300.02905Z" fill="#064e3b"/>
      <polygon points="327.026 500.088 240.416 449.807 240.416 750.102 240.611 750.102 327.136 700.147 327.026 500.088" fill="#064e3b"/>
      <path d="M500,499.8559,240.41522,349.98444l-86.5274-49.95539V700.14667l86.52557,49.95544c.00244,0,.0025-289.96441.0025-300.01886L500,599.95435Z" fill="#34d399"/>
      <polygon points="759.587 249.886 500 399.758 240.413 249.886 153.888 299.841 153.89 300.029 240.416 349.984 500 499.856 759.584 349.984 846.11 300.029 846.112 299.841 759.587 249.886" fill="#059669"/>
    </g>
    <g>
      <polygon points="846.112 299.88 846.112 700.12 500 900 153.888 700.12 153.888 299.88 500 100 846.112 299.88" fill="none" stroke="#000" stroke-miterlimit="10" stroke-width="4"/>
      <g>
        <line x1="500" y1="500" x2="500" y2="900" fill="none" stroke="#000" stroke-miterlimit="10" stroke-width="4"/>
        <line x1="500" y1="500" x2="153.88785" y2="300.11987" fill="none" stroke="#000" stroke-miterlimit="10" stroke-width="4"/>
        <line x1="500" y1="500" x2="846.11212" y2="300.11987" fill="none" stroke="#000" stroke-miterlimit="10" stroke-width="4"/>
      </g>
    </g>
  </g>
</svg>
